<svg width="36" height="34" viewBox="0 0 36 34" fill="none" xmlns="http://www.w3.org/2000/svg">
<path d="M26.9622 20.8627C27.8424 19.2497 29.2628 19.2497 30.143 20.8627L35.6243 31.0712C36.5045 32.6841 35.7844 34 34.0239 34H22.9812C21.2408 34 20.5206 32.6841 21.3808 31.0712L26.9622 20.8627ZM16.3596 1.20974C17.2398 -0.403246 18.6402 -0.403246 19.5204 1.20974L20.7407 3.54432L23.6214 8.91386C24.3216 10.4419 24.3216 12.2459 23.6214 13.774L13.959 31.5381C13.0788 32.9813 11.6184 33.8939 9.99803 34H1.97606C0.215631 34 -0.504546 32.7054 0.375671 31.0712L16.3596 1.20974Z" fill="url(#paint0_linear_147_943)"/>
<defs>
<linearGradient id="paint0_linear_147_943" x1="36.6923" y1="-0.708316" x2="-1.17057" y2="0.368731" gradientUnits="userSpaceOnUse">
<stop stop-color="#DA4C51"/>
<stop offset="1" stop-color="#AF303A"/>
</linearGradient>
</defs>
</svg>
